HIERARCHY
ROOT Hips
{
	OFFSET -0.001795 -0.223333 0.028219
	CHANNELS 6 Xposition Yposition Zposition Zrotation Yrotation Xrotation 
	JOINT LeftUpLeg
	{
		OFFSET 0.069520 -0.091406 -0.006815
		CHANNELS 3 Zrotation Yrotation Xrotation
		JOINT LeftLeg
		{
			OFFSET 0.034277 -0.375199 -0.004496
			CHANNELS 3 Zrotation Yrotation Xrotation
			JOINT LeftFoot
			{
				OFFSET -0.013596 -0.397961 -0.043693
				CHANNELS 3 Zrotation Yrotation Xrotation
				JOINT LeftToe
				{
					OFFSET 0.026358 -0.055791 0.119288
					CHANNELS 3 Zrotation Yrotation Xrotation
					End Site
					{
						OFFSET 0.000000 0.000000 0.000000
					}
				}
			}
		}
	}
	JOINT RightUpLeg
	{
		OFFSET -0.067670 -0.090522 -0.004320
		CHANNELS 3 Zrotation Yrotation Xrotation
		JOINT RightLeg
		{
			OFFSET -0.038290 -0.382569 -0.008850
			CHANNELS 3 Zrotation Yrotation Xrotation
			JOINT RightFoot
			{
				OFFSET 0.015774 -0.398415 -0.042312
				CHANNELS 3 Zrotation Yrotation Xrotation
				JOINT RightToe
				{
					OFFSET -0.025372 -0.048144 0.123348
					CHANNELS 3 Zrotation Yrotation Xrotation
					End Site
					{
						OFFSET 0.000000 0.000000 0.000000
					}
				}
			}
		}
	}
	JOINT Spine
	{
		OFFSET -0.002533 0.108963 -0.026696
		CHANNELS 3 Zrotation Yrotation Xrotation
		JOINT Spine1
		{
			OFFSET 0.005487 0.135180 0.001092
			CHANNELS 3 Zrotation Yrotation Xrotation
			JOINT Spine2
			{
				OFFSET 0.001457 0.052922 0.025425
				CHANNELS 3 Zrotation Yrotation Xrotation
				JOINT Neck
				{
					OFFSET -0.002778 0.213870 -0.042857
					CHANNELS 3 Zrotation Yrotation Xrotation
					JOINT Head
					{
						OFFSET 0.005152 0.064970 0.051349
						CHANNELS 3 Zrotation Yrotation Xrotation
						End Site
						{
							OFFSET 0.000000 0.000000 0.000000
						}
					}
				}
				JOINT LeftShoulder
				{
					OFFSET 0.078845 0.121749 -0.034090
					CHANNELS 3 Zrotation Yrotation Xrotation
					JOINT LeftArm
					{
						OFFSET 0.090977 0.030469 -0.008868
						CHANNELS 3 Zrotation Yrotation Xrotation
						JOINT LeftForeArm
						{
							OFFSET 0.259612 -0.012772 -0.027456
							CHANNELS 3 Zrotation Yrotation Xrotation
							JOINT LeftHand
							{
								OFFSET 0.249234 0.008986 -0.001171
								CHANNELS 3 Zrotation Yrotation Xrotation
								End Site
								{
									OFFSET 0.000000 0.000000 0.000000
								}
							}
						}
					}
				}
				JOINT RightShoulder
				{
					OFFSET -0.081759 0.118833 -0.038615
					CHANNELS 3 Zrotation Yrotation Xrotation
					JOINT RightArm
					{
						OFFSET -0.096012 0.032551 -0.009143
						CHANNELS 3 Zrotation Yrotation Xrotation
						JOINT RightForeArm
						{
							OFFSET -0.253742 -0.013329 -0.021401
							CHANNELS 3 Zrotation Yrotation Xrotation
							JOINT RightHand
							{
								OFFSET -0.255298 0.007772 -0.005559
								CHANNELS 3 Zrotation Yrotation Xrotation
								End Site
								{
									OFFSET 0.000000 0.000000 0.000000
								}
							}
						}
					}
				}
			}
		}
	}
}
MOTION
Frames: 13
Frame Time: 0.050000
0.000000 0.868752 0.000000 0.212684 -8.329382 10.528729 6.226453 -0.191171 -39.451416 -12.946396 6.579049 39.287906 10.434799 21.330585 -0.848786 0.000000 0.000000 0.000000 -3.368897 2.837658 -28.673406 16.415326 -6.258527 66.334241 -9.882279 -23.106324 19.562215 0.000000 0.000000 0.000000 -8.667390 3.642741 44.157550 8.227842 0.085014 -36.810963 1.210831 3.283208 27.522949 -1.568520 2.588050 -33.443996 0.000000 0.000000 0.000000 -31.482446 -5.667542 2.175277 -33.359588 -12.097777 -2.949709 -23.707887 -62.626073 18.184708 0.000000 0.000000 0.000000 23.151701 11.914013 5.812841 39.669720 18.833465 -0.364328 6.925963 58.875014 7.024564 0.000000 0.000000 0.000000 
-0.013450 0.868090 0.048825 -1.552985 -8.096747 10.556842 8.354713 0.430290 -37.172147 -13.251250 6.924267 40.365677 11.972349 24.339935 -0.715953 0.000000 0.000000 0.000000 -5.125582 3.102822 -34.302300 18.822350 -8.628462 67.394289 -9.907811 -23.415468 14.303621 0.000000 0.000000 0.000000 -6.784506 2.851074 46.044503 10.737099 0.122603 -39.135706 -1.304500 3.956045 29.631784 -3.538443 3.767981 -36.735224 0.000000 0.000000 0.000000 -32.362513 -4.325825 0.971500 -31.198198 -13.296621 -2.699818 -30.557607 -64.844262 23.333364 0.000000 0.000000 0.000000 25.327189 11.694738 6.138441 40.092864 18.261012 -0.830602 13.226642 63.942344 12.035433 0.000000 0.000000 0.000000 
-0.028202 0.860487 0.097980 -2.645720 -7.566764 8.724274 9.244283 0.476489 -33.045961 -12.565246 6.912228 42.910705 13.561747 27.750216 -2.443868 0.000000 0.000000 0.000000 -7.614304 2.886467 -39.408301 21.143247 -9.401920 57.695352 -13.769560 -28.104077 27.348822 0.000000 0.000000 0.000000 -5.892308 2.442208 48.671029 10.672640 -0.073143 -38.406033 -0.152775 3.194172 28.864174 -2.885843 3.383616 -34.954899 0.000000 0.000000 0.000000 -34.976842 -5.943728 2.252176 -27.891800 -15.490537 -2.153189 -27.494325 -66.706390 21.931277 0.000000 0.000000 0.000000 23.930049 11.122647 5.518369 41.346266 16.715654 -1.167213 13.172029 65.301461 12.274518 0.000000 0.000000 0.000000 
-0.044770 0.850388 0.148243 -4.030261 -5.655576 8.626218 10.710577 0.528514 -29.996994 -10.556238 5.658762 45.005479 12.180297 25.855403 -7.473257 0.000000 0.000000 0.000000 -8.738498 2.721299 -45.783999 17.754978 -5.673350 37.724830 -44.976260 -31.580516 101.460538 0.000000 0.000000 0.000000 -4.849510 1.567749 51.043464 12.397033 -0.129766 -39.293134 -1.343152 1.495887 29.257187 -6.028725 4.782169 -35.779554 0.000000 0.000000 0.000000 -34.099130 -6.302561 2.965474 -27.102059 -16.288327 -2.134253 -23.152804 -71.102289 20.566803 0.000000 0.000000 0.000000 25.127783 11.655477 5.634952 39.181786 17.384546 -1.038510 12.604763 68.682221 12.440305 0.000000 0.000000 0.000000 
-0.063564 0.835011 0.198980 -5.112810 -5.684392 8.430090 13.296429 1.033412 -26.746316 -8.873849 5.085841 47.831975 9.539041 19.957184 -12.007349 0.000000 0.000000 0.000000 -8.810818 3.044312 -50.014332 12.482444 -2.501246 21.841838 -37.352730 -31.369879 95.082124 0.000000 0.000000 0.000000 -4.597258 1.496783 52.525435 13.822853 -0.074374 -40.653926 -2.082970 0.796082 30.464775 -7.430292 5.342035 -37.123586 0.000000 0.000000 0.000000 -36.434650 -6.447863 3.535848 -23.513854 -18.258714 -1.979146 -15.475449 -75.196706 16.011205 0.000000 0.000000 0.000000 25.885194 12.066808 5.711286 38.847956 17.577415 -1.059382 14.852963 70.360145 14.324221 0.000000 0.000000 0.000000 
-0.084533 0.816144 0.251452 -5.700059 -6.406494 9.467091 14.899705 1.249554 -23.587574 -7.487973 4.757734 49.755714 8.447542 17.021962 -17.518073 0.000000 0.000000 0.000000 -8.062084 3.866690 -53.146306 9.162179 -1.374990 16.200851 -5.582922 -18.617230 35.861666 0.000000 0.000000 0.000000 -4.486863 1.683287 53.218802 17.245104 -0.288041 -40.662104 -4.368995 2.129420 29.681124 -9.606666 6.420234 -39.023329 0.000000 0.000000 0.000000 -34.447748 -5.535790 2.283648 -23.321044 -18.574579 -1.746794 -14.114630 -79.351491 15.878651 0.000000 0.000000 0.000000 27.573123 13.251664 6.873360 36.750603 19.111633 -0.650224 8.573933 71.691273 10.185973 0.000000 0.000000 0.000000 
-0.109005 0.795815 0.306923 -5.319262 -5.906131 11.431772 16.183325 1.379471 -23.031531 -6.205179 4.299745 53.660237 6.855756 11.807026 -17.802699 0.000000 0.000000 0.000000 -7.440871 4.344403 -56.226218 8.135736 -1.218245 19.178620 -2.803617 -12.790881 19.493679 0.000000 0.000000 0.000000 -3.316987 0.884362 51.509222 15.061553 -0.361716 -38.940731 -3.866641 0.182406 27.699412 -10.561457 6.527404 -38.248948 0.000000 0.000000 0.000000 -34.089905 -6.120427 3.477439 -21.094910 -18.669655 -1.765564 -5.312715 -82.214411 9.056519 0.000000 0.000000 0.000000 26.095025 15.158264 7.262724 35.757008 20.599304 0.051983 7.166886 73.529839 8.988699 0.000000 0.000000 0.000000 
-0.135525 0.773927 0.364562 -4.741754 -3.604406 11.743760 18.205788 1.626246 -24.369733 -5.476236 3.720444 62.371885 5.499804 9.724993 -8.499613 0.000000 0.000000 0.000000 -7.663595 3.774403 -59.733066 10.072470 -2.390554 31.107605 -4.328258 -12.950264 7.338351 0.000000 0.000000 0.000000 -1.911754 -0.442895 53.595162 13.866210 -0.017637 -40.599931 -2.911632 -0.145562 26.917030 -12.447392 7.289974 -39.728690 0.000000 0.000000 0.000000 -33.737464 -7.534255 4.240245 -18.446900 -19.497535 -1.596766 4.938575 -85.011938 -0.183471 0.000000 0.000000 0.000000 24.474863 15.481473 7.560902 32.072681 23.480735 0.473534 1.873285 78.683145 5.578351 0.000000 0.000000 0.000000 
-0.161781 0.756697 0.420891 -4.638628 -1.750842 11.993276 21.369409 2.188692 -25.960624 -7.440134 5.303737 70.862051 5.606773 11.687737 -0.336454 0.000000 0.000000 0.000000 -7.501662 3.434235 -63.627050 12.593379 -4.606758 43.863401 -5.940495 -14.689557 -3.558220 0.000000 0.000000 0.000000 -1.241683 -1.337103 54.635335 12.437594 -0.099186 -39.240734 -1.544957 0.847640 25.128769 -11.716365 7.163378 -38.425947 0.000000 0.000000 0.000000 -32.040621 -9.253552 4.578511 -17.776734 -20.581655 -1.241756 37.293286 -86.276887 -30.736922 0.000000 0.000000 0.000000 21.795560 17.134868 8.828813 28.765009 27.068275 0.945292 -18.240964 81.361131 -10.918639 0.000000 0.000000 0.000000 
-0.184762 0.749917 0.473670 -3.739949 -0.464424 12.991420 22.837833 2.740900 -29.890650 -10.749570 8.663920 77.613477 7.597766 16.338159 6.262281 0.000000 0.000000 0.000000 -6.820799 3.466603 -66.807530 12.604816 -5.776203 53.946088 -6.809718 -16.361840 -9.246853 0.000000 0.000000 0.000000 -1.756122 -1.431788 55.733091 12.078333 0.092478 -40.280283 -0.916796 1.733633 24.901412 -12.155514 7.528789 -37.680517 0.000000 0.000000 0.000000 -30.457868 -9.921619 4.430288 -17.796518 -21.171152 -1.091092 58.286343 -84.738089 -49.631290 0.000000 0.000000 0.000000 20.707187 18.405219 9.916033 24.206470 28.982425 0.593172 -45.581051 81.596838 -34.475782 0.000000 0.000000 0.000000 
-0.203469 0.752399 0.522308 -2.887021 1.630118 13.674392 23.664308 3.122316 -34.937298 -14.583562 11.948174 80.207536 9.171941 19.127399 7.813177 0.000000 0.000000 0.000000 -6.450903 2.765762 -67.629529 12.806595 -7.051115 60.230657 -7.395468 -17.907865 -11.859705 0.000000 0.000000 0.000000 -1.695874 -2.212759 57.875832 9.255789 0.554172 -42.706331 0.762357 1.090479 25.971955 -10.939475 6.926230 -37.981610 0.000000 0.000000 0.000000 -27.037709 -9.633578 4.188099 -20.268979 -23.505337 -0.801303 77.118113 -84.071626 -66.645962 0.000000 0.000000 0.000000 17.287292 18.783694 9.683034 22.276726 31.562129 0.631070 -64.195522 79.526324 -49.308124 0.000000 0.000000 0.000000 
-0.218201 0.758607 0.566779 -1.780611 2.857909 13.784040 24.803683 3.846198 -40.573979 -18.610749 15.407578 79.535424 9.075652 18.928127 5.550511 0.000000 0.000000 0.000000 -6.562952 2.094457 -67.769973 13.103328 -8.264794 65.325800 -7.656511 -18.660181 -11.671226 0.000000 0.000000 0.000000 -2.843550 -2.074091 60.604801 8.562662 0.738147 -44.116455 1.589530 1.427786 25.446106 -10.042827 6.627086 -37.604289 0.000000 0.000000 0.000000 -26.283006 -9.554786 3.803340 -20.149528 -24.538027 -0.605168 83.514431 -82.237507 -71.221213 0.000000 0.000000 0.000000 16.456956 19.672532 10.237497 18.729163 31.703165 0.062212 -74.641546 78.180724 -57.498555 0.000000 0.000000 0.000000 
-0.229483 0.762062 0.608239 -0.171446 4.036255 14.397235 26.393842 4.773866 -46.488397 -24.327980 19.147256 74.220815 10.691138 21.806411 5.659675 0.000000 0.000000 0.000000 -7.479440 0.905361 -68.074203 13.093041 -9.074228 68.572397 -7.752911 -18.929984 -10.086336 0.000000 0.000000 0.000000 -3.975866 -1.899946 62.731962 7.582090 0.880388 -45.117488 1.751441 1.950175 24.981834 -10.658713 6.966492 -37.579784 0.000000 0.000000 0.000000 -23.936360 -9.145927 3.204088 -22.077283 -25.226799 -0.282349 105.414260 -83.363619 -94.120362 0.000000 0.000000 0.000000 15.010827 20.088100 10.461396 14.998317 31.955776 -0.541781 -82.352299 76.479852 -62.784964 0.000000 0.000000 0.000000 
